P2
9 9
# portable graymap representing a sudoku solution
9 
1 2 3 4 5 6 7 8 9
4 5 6 7 8 9 4 5 6
1 2 3 4 5 6 7 8 9
7 8 9 1 2 3 4 5 6
7 8 9 4 5 6 7 8 9
7 8 9 4 5 6 7 8 9
7 8 9 4 5 6 7 8 9
7 8 9 4 5 6 7 8 9
7 8 9 4 5 6 7 8 9
